<svg xmlns="http://www.w3.org/2000/svg" viewBox="0 0 24 22" width="24" height="22" shape-rendering="crispEdges" role="img" aria-label="Pixel-art kangaroo mascot"><rect x="14" y="0" width="2" height="1" fill="#c0562f"/><rect x="18" y="0" width="2" height="1" fill="#c0562f"/><rect x="14" y="1" width="2" height="1" fill="#c0562f"/><rect x="18" y="1" width="2" height="1" fill="#c0562f"/><rect x="13" y="2" width="7" height="1" fill="#c0562f"/><rect x="13" y="3" width="7" height="1" fill="#c0562f"/><rect x="13" y="4" width="4" height="1" fill="#c0562f"/><rect x="17" y="4" width="1" height="1" fill="#24201b"/><rect x="18" y="4" width="4" height="1" fill="#c0562f"/><rect x="13" y="5" width="10" height="1" fill="#c0562f"/><rect x="13" y="6" width="6" height="1" fill="#c0562f"/><rect x="14" y="7" width="4" height="1" fill="#c0562f"/><rect x="13" y="8" width="4" height="1" fill="#c0562f"/><rect x="11" y="9" width="6" height="1" fill="#c0562f"/><rect x="10" y="10" width="8" height="1" fill="#c0562f"/><rect x="9" y="11" width="9" height="1" fill="#c0562f"/><rect x="8" y="12" width="7" height="1" fill="#c0562f"/><rect x="15" y="12" width="2" height="1" fill="#fdfbf7"/><rect x="17" y="12" width="1" height="1" fill="#c0562f"/><rect x="7" y="13" width="8" height="1" fill="#c0562f"/><rect x="15" y="13" width="2" height="1" fill="#fdfbf7"/><rect x="17" y="13" width="1" height="1" fill="#c0562f"/><rect x="6" y="14" width="10" height="1" fill="#c0562f"/><rect x="16" y="14" width="1" height="1" fill="#fdfbf7"/><rect x="17" y="14" width="1" height="1" fill="#c0562f"/><rect x="5" y="15" width="13" height="1" fill="#c0562f"/><rect x="5" y="16" width="13" height="1" fill="#c0562f"/><rect x="2" y="17" width="16" height="1" fill="#c0562f"/><rect x="0" y="18" width="4" height="1" fill="#c0562f"/><rect x="5" y="18" width="13" height="1" fill="#c0562f"/><rect x="0" y="19" width="3" height="1" fill="#c0562f"/><rect x="5" y="19" width="12" height="1" fill="#c0562f"/><rect x="7" y="20" width="14" height="1" fill="#c0562f"/><rect x="7" y="21" width="12" height="1" fill="#c0562f"/></svg>
