<svg xmlns="http://www.w3.org/2000/svg" viewBox="0 0 18 12" width="18" height="12" shape-rendering="crispEdges" role="img" aria-label="Pixel-art Kangentic mascot"><rect x="5" y="0" width="8" height="1" fill="#c0562f"/><rect x="3" y="1" width="12" height="1" fill="#c0562f"/><rect x="2" y="2" width="14" height="1" fill="#c0562f"/><rect x="2" y="3" width="2" height="1" fill="#c0562f"/><rect x="4" y="3" width="1" height="1" fill="#24201b"/><rect x="5" y="3" width="1" height="1" fill="#fdfbf7"/><rect x="6" y="3" width="2" height="1" fill="#c0562f"/><rect x="8" y="3" width="1" height="1" fill="#24201b"/><rect x="9" y="3" width="1" height="1" fill="#fdfbf7"/><rect x="10" y="3" width="2" height="1" fill="#c0562f"/><rect x="12" y="3" width="1" height="1" fill="#24201b"/><rect x="13" y="3" width="1" height="1" fill="#fdfbf7"/><rect x="14" y="3" width="2" height="1" fill="#c0562f"/><rect x="2" y="4" width="2" height="1" fill="#c0562f"/><rect x="4" y="4" width="2" height="1" fill="#24201b"/><rect x="6" y="4" width="2" height="1" fill="#c0562f"/><rect x="8" y="4" width="2" height="1" fill="#24201b"/><rect x="10" y="4" width="2" height="1" fill="#c0562f"/><rect x="12" y="4" width="2" height="1" fill="#24201b"/><rect x="14" y="4" width="2" height="1" fill="#c0562f"/><rect x="0" y="5" width="18" height="1" fill="#c0562f"/><rect x="0" y="6" width="18" height="1" fill="#c0562f"/><rect x="2" y="7" width="14" height="1" fill="#c0562f"/><rect x="2" y="8" width="14" height="1" fill="#c0562f"/><rect x="3" y="9" width="12" height="1" fill="#c0562f"/><rect x="4" y="10" width="2" height="1" fill="#c0562f"/><rect x="8" y="10" width="2" height="1" fill="#c0562f"/><rect x="12" y="10" width="2" height="1" fill="#c0562f"/><rect x="4" y="11" width="2" height="1" fill="#c0562f"/><rect x="8" y="11" width="2" height="1" fill="#c0562f"/><rect x="12" y="11" width="2" height="1" fill="#c0562f"/></svg>
