<svg xmlns="http://www.w3.org/2000/svg" viewBox="0 0 14 11" width="14" height="11" shape-rendering="crispEdges" role="img" aria-label="Pixel-art Kangentic mascot"><rect x="3" y="0" width="8" height="1" fill="#c0562f"/><rect x="1" y="1" width="12" height="1" fill="#c0562f"/><rect x="0" y="2" width="14" height="1" fill="#c0562f"/><rect x="0" y="3" width="2" height="1" fill="#c0562f"/><rect x="2" y="3" width="1" height="1" fill="#24201b"/><rect x="3" y="3" width="1" height="1" fill="#fdfbf7"/><rect x="4" y="3" width="2" height="1" fill="#c0562f"/><rect x="6" y="3" width="1" height="1" fill="#24201b"/><rect x="7" y="3" width="1" height="1" fill="#fdfbf7"/><rect x="8" y="3" width="2" height="1" fill="#c0562f"/><rect x="10" y="3" width="1" height="1" fill="#24201b"/><rect x="11" y="3" width="1" height="1" fill="#fdfbf7"/><rect x="12" y="3" width="2" height="1" fill="#c0562f"/><rect x="0" y="4" width="2" height="1" fill="#c0562f"/><rect x="2" y="4" width="2" height="1" fill="#24201b"/><rect x="4" y="4" width="2" height="1" fill="#c0562f"/><rect x="6" y="4" width="2" height="1" fill="#24201b"/><rect x="8" y="4" width="2" height="1" fill="#c0562f"/><rect x="10" y="4" width="2" height="1" fill="#24201b"/><rect x="12" y="4" width="2" height="1" fill="#c0562f"/><rect x="0" y="5" width="14" height="1" fill="#c0562f"/><rect x="0" y="6" width="14" height="1" fill="#c0562f"/><rect x="0" y="7" width="14" height="1" fill="#c0562f"/><rect x="1" y="8" width="12" height="1" fill="#c0562f"/><rect x="2" y="9" width="2" height="1" fill="#c0562f"/><rect x="6" y="9" width="2" height="1" fill="#c0562f"/><rect x="10" y="9" width="2" height="1" fill="#c0562f"/><rect x="2" y="10" width="2" height="1" fill="#c0562f"/><rect x="6" y="10" width="2" height="1" fill="#c0562f"/><rect x="10" y="10" width="2" height="1" fill="#c0562f"/></svg>
