<svg xmlns="http://www.w3.org/2000/svg" viewBox="0 0 8 10" width="8" height="10" shape-rendering="crispEdges" role="img" aria-label="Kangentic"><rect x="0" y="0" width="2" height="1" fill="#c0562f"/><rect x="6" y="0" width="2" height="1" fill="#c0562f"/><rect x="0" y="1" width="2" height="1" fill="#c0562f"/><rect x="5" y="1" width="2" height="1" fill="#c0562f"/><rect x="0" y="2" width="2" height="1" fill="#c0562f"/><rect x="4" y="2" width="2" height="1" fill="#c0562f"/><rect x="0" y="3" width="2" height="1" fill="#c0562f"/><rect x="3" y="3" width="2" height="1" fill="#c0562f"/><rect x="0" y="4" width="4" height="1" fill="#c0562f"/><rect x="0" y="5" width="4" height="1" fill="#c0562f"/><rect x="0" y="6" width="2" height="1" fill="#c0562f"/><rect x="3" y="6" width="2" height="1" fill="#c0562f"/><rect x="0" y="7" width="2" height="1" fill="#c0562f"/><rect x="4" y="7" width="2" height="1" fill="#c0562f"/><rect x="0" y="8" width="2" height="1" fill="#c0562f"/><rect x="5" y="8" width="2" height="1" fill="#c0562f"/><rect x="0" y="9" width="2" height="1" fill="#c0562f"/><rect x="6" y="9" width="2" height="1" fill="#c0562f"/></svg>
