<svg xmlns="http://www.w3.org/2000/svg" viewBox="0 0 24 9" width="24" height="9" shape-rendering="crispEdges" role="img" aria-label="Pixel-art UFO carrying the Kangentic mascot"><rect x="8" y="0" width="8" height="1" fill="#e8a33d"/><rect x="6" y="1" width="12" height="1" fill="#e8a33d"/><rect x="5" y="2" width="14" height="1" fill="#e8a33d"/><rect x="5" y="3" width="2" height="1" fill="#e8a33d"/><rect x="7" y="3" width="1" height="1" fill="#24201b"/><rect x="8" y="3" width="1" height="1" fill="#fdfbf7"/><rect x="9" y="3" width="2" height="1" fill="#e8a33d"/><rect x="11" y="3" width="1" height="1" fill="#24201b"/><rect x="12" y="3" width="1" height="1" fill="#fdfbf7"/><rect x="13" y="3" width="2" height="1" fill="#e8a33d"/><rect x="15" y="3" width="1" height="1" fill="#24201b"/><rect x="16" y="3" width="1" height="1" fill="#fdfbf7"/><rect x="17" y="3" width="2" height="1" fill="#e8a33d"/><rect x="5" y="4" width="2" height="1" fill="#e8a33d"/><rect x="7" y="4" width="2" height="1" fill="#24201b"/><rect x="9" y="4" width="2" height="1" fill="#e8a33d"/><rect x="11" y="4" width="2" height="1" fill="#24201b"/><rect x="13" y="4" width="2" height="1" fill="#e8a33d"/><rect x="15" y="4" width="2" height="1" fill="#24201b"/><rect x="17" y="4" width="2" height="1" fill="#e8a33d"/><rect x="4" y="5" width="16" height="1" fill="#c0562f"/><rect x="0" y="6" width="3" height="1" fill="#c0562f"/><rect x="3" y="6" width="1" height="1" fill="#fdfbf7"/><rect x="4" y="6" width="5" height="1" fill="#c0562f"/><rect x="9" y="6" width="1" height="1" fill="#fdfbf7"/><rect x="10" y="6" width="4" height="1" fill="#c0562f"/><rect x="14" y="6" width="1" height="1" fill="#fdfbf7"/><rect x="15" y="6" width="5" height="1" fill="#c0562f"/><rect x="20" y="6" width="1" height="1" fill="#fdfbf7"/><rect x="21" y="6" width="3" height="1" fill="#c0562f"/><rect x="2" y="7" width="20" height="1" fill="#c0562f"/><rect x="6" y="8" width="12" height="1" fill="#c0562f"/></svg>
