<svg xmlns="http://www.w3.org/2000/svg" viewBox="0 0 26 11" width="26" height="11" shape-rendering="crispEdges" role="img" aria-label="Pixel-art empty UFO"><rect x="7" y="0" width="12" height="1" fill="#c0562f"/><rect x="6" y="1" width="1" height="1" fill="#c0562f"/><rect x="19" y="1" width="1" height="1" fill="#c0562f"/><rect x="5" y="2" width="1" height="1" fill="#c0562f"/><rect x="20" y="2" width="1" height="1" fill="#c0562f"/><rect x="4" y="3" width="1" height="1" fill="#c0562f"/><rect x="21" y="3" width="1" height="1" fill="#c0562f"/><rect x="3" y="4" width="1" height="1" fill="#c0562f"/><rect x="22" y="4" width="1" height="1" fill="#c0562f"/><rect x="3" y="5" width="1" height="1" fill="#c0562f"/><rect x="22" y="5" width="1" height="1" fill="#c0562f"/><rect x="3" y="6" width="1" height="1" fill="#c0562f"/><rect x="22" y="6" width="1" height="1" fill="#c0562f"/><rect x="3" y="7" width="20" height="1" fill="#c0562f"/><rect x="0" y="8" width="3" height="1" fill="#c0562f"/><rect x="3" y="8" width="1" height="1" fill="#fdfbf7"/><rect x="4" y="8" width="6" height="1" fill="#c0562f"/><rect x="10" y="8" width="1" height="1" fill="#fdfbf7"/><rect x="11" y="8" width="4" height="1" fill="#c0562f"/><rect x="15" y="8" width="1" height="1" fill="#fdfbf7"/><rect x="16" y="8" width="6" height="1" fill="#c0562f"/><rect x="22" y="8" width="1" height="1" fill="#fdfbf7"/><rect x="23" y="8" width="3" height="1" fill="#c0562f"/><rect x="2" y="9" width="22" height="1" fill="#c0562f"/><rect x="7" y="10" width="12" height="1" fill="#c0562f"/></svg>
