<svg xmlns="http://www.w3.org/2000/svg" width="512" height="512"><circle cx="256" cy="256" r="256" fill="#c0562f"/><g transform="scale(5.12)"><g transform="translate(50,50) scale(1.251207347382446) translate(-50,-51.34228515625)"><mask id="kg40"><rect x="-50" y="-50" width="200" height="200" fill="#fff"/><rect x="49.35" y="28.4" width="6.5" height="26" transform="rotate(-38 52.6 41.4)" fill="#000"/></mask>
    <g mask="url(#kg40)"><g transform="translate(20.68359375,5.7485651397705055) scale(0.79)"><path d="M8.0078125,22.70380401611328L23.779296875,22.70380401611328 23.779296875,55.80927276611328 24.0234375,55.80927276611328 24.365232467651367,55.05243682861328 24.804685592651367,54.14911651611328 25.341794967651367,53.09931182861328 25.9765625,51.90302276611328 45.3125,22.70380401611328 64.111328125,22.70380401611328 39.697265625,56.10224151611328 66.2109375,92.72333526611328 46.2890625,92.72333526611328 25.87890625,62.30341339111328 25.543212890625,61.73273468017578 25.1220703125,60.89960479736328 24.615478515625,59.80402374267578 24.0234375,58.44599151611328 23.779296875,58.44599151611328 23.779296875,92.72333526611328 8.0078125,92.72333526611328 8.0078125,22.70380401611328z" fill="#fdfbf7"/></g></g><clipPath id="kt41"><polygon points="-191.10355518104143,-275.8052012374972 301.42562507948514,354.6034016478804 616.629926522174,108.3388115176171 124.10074626164737,-522.0697913677604"/></clipPath>
    <g clip-path="url(#kt41)"><g transform="translate(20.68359375,5.7485651397705055) scale(0.79)"><path d="M8.0078125,22.70380401611328L23.779296875,22.70380401611328 23.779296875,55.80927276611328 24.0234375,55.80927276611328 24.365232467651367,55.05243682861328 24.804685592651367,54.14911651611328 25.341794967651367,53.09931182861328 25.9765625,51.90302276611328 45.3125,22.70380401611328 64.111328125,22.70380401611328 39.697265625,56.10224151611328 66.2109375,92.72333526611328 46.2890625,92.72333526611328 25.87890625,62.30341339111328 25.543212890625,61.73273468017578 25.1220703125,60.89960479736328 24.615478515625,59.80402374267578 24.0234375,58.44599151611328 23.779296875,58.44599151611328 23.779296875,92.72333526611328 8.0078125,92.72333526611328 8.0078125,22.70380401611328z" fill="#e8a33d"/></g></g></g></g></svg>