<svg xmlns="http://www.w3.org/2000/svg" viewBox="0 0 20 14" width="20" height="14" shape-rendering="crispEdges" role="img" aria-label="Pixel-art Kangentic board creature (runner-up)"><rect x="9" y="0" width="2" height="1" fill="#e8a33d"/><rect x="9" y="1" width="2" height="1" fill="#c0562f"/><rect x="2" y="2" width="16" height="1" fill="#c0562f"/><rect x="1" y="3" width="18" height="1" fill="#c0562f"/><rect x="1" y="4" width="4" height="1" fill="#c0562f"/><rect x="5" y="4" width="1" height="1" fill="#24201b"/><rect x="6" y="4" width="1" height="1" fill="#fdfbf7"/><rect x="7" y="4" width="5" height="1" fill="#c0562f"/><rect x="12" y="4" width="1" height="1" fill="#24201b"/><rect x="13" y="4" width="1" height="1" fill="#fdfbf7"/><rect x="14" y="4" width="5" height="1" fill="#c0562f"/><rect x="1" y="5" width="4" height="1" fill="#c0562f"/><rect x="5" y="5" width="2" height="1" fill="#24201b"/><rect x="7" y="5" width="5" height="1" fill="#c0562f"/><rect x="12" y="5" width="2" height="1" fill="#24201b"/><rect x="14" y="5" width="5" height="1" fill="#c0562f"/><rect x="1" y="6" width="18" height="1" fill="#c0562f"/><rect x="0" y="7" width="3" height="1" fill="#c0562f"/><rect x="3" y="7" width="4" height="1" fill="#fdfbf7"/><rect x="7" y="7" width="1" height="1" fill="#c0562f"/><rect x="8" y="7" width="4" height="1" fill="#fdfbf7"/><rect x="12" y="7" width="1" height="1" fill="#c0562f"/><rect x="13" y="7" width="4" height="1" fill="#fdfbf7"/><rect x="17" y="7" width="3" height="1" fill="#c0562f"/><rect x="0" y="8" width="3" height="1" fill="#c0562f"/><rect x="3" y="8" width="4" height="1" fill="#fdfbf7"/><rect x="7" y="8" width="1" height="1" fill="#c0562f"/><rect x="8" y="8" width="4" height="1" fill="#fdfbf7"/><rect x="12" y="8" width="1" height="1" fill="#c0562f"/><rect x="13" y="8" width="4" height="1" fill="#fdfbf7"/><rect x="17" y="8" width="3" height="1" fill="#c0562f"/><rect x="1" y="9" width="2" height="1" fill="#c0562f"/><rect x="3" y="9" width="4" height="1" fill="#fdfbf7"/><rect x="7" y="9" width="1" height="1" fill="#c0562f"/><rect x="8" y="9" width="4" height="1" fill="#e8a33d"/><rect x="12" y="9" width="1" height="1" fill="#c0562f"/><rect x="13" y="9" width="4" height="1" fill="#fdfbf7"/><rect x="17" y="9" width="2" height="1" fill="#c0562f"/><rect x="1" y="10" width="2" height="1" fill="#c0562f"/><rect x="3" y="10" width="4" height="1" fill="#fdfbf7"/><rect x="7" y="10" width="1" height="1" fill="#c0562f"/><rect x="8" y="10" width="4" height="1" fill="#e8a33d"/><rect x="12" y="10" width="1" height="1" fill="#c0562f"/><rect x="13" y="10" width="4" height="1" fill="#fdfbf7"/><rect x="17" y="10" width="2" height="1" fill="#c0562f"/><rect x="1" y="11" width="18" height="1" fill="#c0562f"/><rect x="2" y="12" width="16" height="1" fill="#c0562f"/><rect x="3" y="13" width="2" height="1" fill="#c0562f"/><rect x="15" y="13" width="2" height="1" fill="#c0562f"/></svg>
