<svg xmlns="http://www.w3.org/2000/svg" viewBox="0 0 16 16" width="16" height="16" shape-rendering="crispEdges" role="img" aria-label="Pixel-art kangaroo mascot (retired)"><rect x="9" y="0" width="2" height="1" fill="#c0562f"/><rect x="13" y="0" width="2" height="1" fill="#c0562f"/><rect x="9" y="1" width="2" height="1" fill="#c0562f"/><rect x="13" y="1" width="2" height="1" fill="#c0562f"/><rect x="9" y="2" width="6" height="1" fill="#c0562f"/><rect x="9" y="3" width="3" height="1" fill="#c0562f"/><rect x="12" y="3" width="1" height="1" fill="#24201b"/><rect x="13" y="3" width="2" height="1" fill="#c0562f"/><rect x="9" y="4" width="7" height="1" fill="#c0562f"/><rect x="8" y="5" width="6" height="1" fill="#c0562f"/><rect x="7" y="6" width="7" height="1" fill="#c0562f"/><rect x="6" y="7" width="8" height="1" fill="#c0562f"/><rect x="5" y="8" width="7" height="1" fill="#c0562f"/><rect x="12" y="8" width="1" height="1" fill="#fdfbf7"/><rect x="13" y="8" width="1" height="1" fill="#c0562f"/><rect x="4" y="9" width="8" height="1" fill="#c0562f"/><rect x="12" y="9" width="1" height="1" fill="#fdfbf7"/><rect x="13" y="9" width="1" height="1" fill="#c0562f"/><rect x="3" y="10" width="11" height="1" fill="#c0562f"/><rect x="2" y="11" width="12" height="1" fill="#c0562f"/><rect x="1" y="12" width="13" height="1" fill="#c0562f"/><rect x="0" y="13" width="4" height="1" fill="#c0562f"/><rect x="6" y="13" width="8" height="1" fill="#c0562f"/><rect x="1" y="14" width="2" height="1" fill="#c0562f"/><rect x="7" y="14" width="3" height="1" fill="#c0562f"/><rect x="12" y="14" width="2" height="1" fill="#c0562f"/><rect x="7" y="15" width="2" height="1" fill="#c0562f"/><rect x="13" y="15" width="2" height="1" fill="#c0562f"/></svg>
