<svg xmlns="http://www.w3.org/2000/svg" viewBox="0 0 100 100"><path fill-rule="evenodd" fill="currentColor" d="M0 50a50 50 0 1 0 100 0a50 50 0 1 0 -100 0ZM26.4 20.5h7.67a3.54 3.54 0 0 1 3.54 3.54v44.84a3.54 3.54 0 0 1 -3.54 3.54h-7.67a3.54 3.54 0 0 1 -3.54 -3.54v-44.84a3.54 3.54 0 0 1 3.54 -3.54ZM45.87 20.5h7.67a3.54 3.54 0 0 1 3.54 3.54v16.52a3.54 3.54 0 0 1 -3.54 3.54h-7.67a3.54 3.54 0 0 1 -3.54 -3.54v-16.52a3.54 3.54 0 0 1 3.54 -3.54ZM65.34 20.5h7.67a3.54 3.54 0 0 1 3.54 3.54v44.84a3.54 3.54 0 0 1 -3.54 3.54h-7.67a3.54 3.54 0 0 1 -3.54 -3.54v-44.84a3.54 3.54 0 0 1 3.54 -3.54ZM44.69 52.36h10.03a2.36 2.36 0 0 1 2.36 2.36v15.34a2.36 2.36 0 0 1 -2.36 2.36h-10.03a2.36 2.36 0 0 1 -2.36 -2.36v-15.34a2.36 2.36 0 0 1 2.36 -2.36Z"/></svg>