<svg xmlns="http://www.w3.org/2000/svg" viewBox="0 0 100 100"><path fill-rule="evenodd" fill="currentColor" d="M0 50a50 50 0 1 0 100 0a50 50 0 1 0 -100 0ZM26.4 20.5h7.67a3.54 3.54 0 0 1 3.54 3.54v44.84a3.54 3.54 0 0 1 -3.54 3.54h-7.67a3.54 3.54 0 0 1 -3.54 -3.54v-44.84a3.54 3.54 0 0 1 3.54 -3.54ZM45.87 20.5h7.67a3.54 3.54 0 0 1 3.54 3.54v21.24a3.54 3.54 0 0 1 -3.54 3.54h-7.67a3.54 3.54 0 0 1 -3.54 -3.54v-21.24a3.54 3.54 0 0 1 3.54 -3.54ZM65.34 20.5h7.67a3.54 3.54 0 0 1 3.54 3.54v44.84a3.54 3.54 0 0 1 -3.54 3.54h-7.67a3.54 3.54 0 0 1 -3.54 -3.54v-44.84a3.54 3.54 0 0 1 3.54 -3.54Z"/><rect x="42.33" y="55.9" width="14.75" height="16.52" rx="3.54" fill="#e8a33d"/></svg>